<?xml version="1.0" encoding="UTF-8" standalone="no"?>
<!DOCTYPE svg PUBLIC "-//W3C//DTD SVG 1.1//EN"
 "http://www.w3.org/Graphics/SVG/1.1/DTD/svg11.dtd">
<!-- Generated by graphviz version 2.26.3 (20100126.1600)
 -->
<!-- Title: G Pages: 1 -->
<svg width="688pt" height="1754pt"
 viewBox="0.00 0.00 688.00 1754.00" xmlns="http://www.w3.org/2000/svg" xmlns:xlink="http://www.w3.org/1999/xlink">
<g id="graph1" class="graph" transform="scale(1 1) rotate(0) translate(4 1750)">
<title>G</title>
<polygon fill="white" stroke="white" points="-4,5 -4,-1750 685,-1750 685,5 -4,5"/>
<g id="graph2" class="cluster"><title>cluster_Global</title>
<polyline fill="none" stroke="gray" points="20,-152 660,-152 "/>
<path fill="none" stroke="gray" d="M660,-152C666,-152 672,-158 672,-164"/>
<polyline fill="none" stroke="gray" points="672,-164 672,-1726 "/>
<path fill="none" stroke="gray" d="M672,-1726C672,-1732 666,-1738 660,-1738"/>
<polyline fill="none" stroke="gray" points="660,-1738 20,-1738 "/>
<path fill="none" stroke="gray" d="M20,-1738C14,-1738 8,-1732 8,-1726"/>
<polyline fill="none" stroke="gray" points="8,-1726 8,-164 "/>
<path fill="none" stroke="gray" d="M8,-164C8,-158 14,-152 20,-152"/>
<text text-anchor="middle" x="340" y="-1724.1" font-family="Times Roman,serif" font-size="11.00" fill="gray">\</text>
</g>
<!-- \\Partecipazione -->
<g id="node2" class="node"><title>\\Partecipazione</title>
<polygon fill="none" stroke="black" points="270,-1708 160,-1708 160,-1672 270,-1672 270,-1708"/>
<text text-anchor="middle" x="215" y="-1687.1" font-family="Courier,monospace" font-size="11.00">Partecipazione</text>
</g>
<!-- \\Entita -->
<g id="node12" class="node"><title>\\Entita</title>
<polygon fill="none" stroke="black" points="73,-952 17,-952 17,-916 73,-916 73,-952"/>
<text text-anchor="middle" x="45" y="-931.1" font-family="Courier,monospace" font-size="11.00">Entita</text>
</g>
<!-- \\Partecipazione&#45;&gt;\\Entita -->
<g id="edge3" class="edge"><title>\\Partecipazione&#45;&gt;\\Entita</title>
<path fill="none" stroke="black" d="M159.28,-1674.68C154.239,-1671.49 149.664,-1667.65 146,-1663 101.652,-1606.76 57.5107,-1089.82 47.2333,-962.323"/>
<polygon fill="none" stroke="black" points="50.7089,-961.877 46.4218,-952.188 43.7313,-962.435 50.7089,-961.877"/>
</g>
<!-- \\Dimissione -->
<g id="node3" class="node"><title>\\Dimissione</title>
<polygon fill="none" stroke="black" points="257,-1654 173,-1654 173,-1618 257,-1618 257,-1654"/>
<text text-anchor="middle" x="215" y="-1633.1" font-family="Courier,monospace" font-size="11.00">Dimissione</text>
</g>
<!-- \\Dimissione&#45;&gt;\\Entita -->
<g id="edge5" class="edge"><title>\\Dimissione&#45;&gt;\\Entita</title>
<path fill="none" stroke="black" d="M172.894,-1627.4C162.714,-1623.4 152.817,-1617.55 146,-1609 64.2345,-1506.46 48.3561,-1076.57 45.5561,-962.101"/>
<polygon fill="none" stroke="black" points="49.0535,-961.947 45.3242,-952.03 42.0554,-962.108 49.0535,-961.947"/>
</g>
<!-- \\Zip -->
<g id="node4" class="node"><title>\\Zip</title>
<polygon fill="none" stroke="black" points="445,-574 391,-574 391,-538 445,-538 445,-574"/>
<text text-anchor="middle" x="418" y="-553.1" font-family="Courier,monospace" font-size="11.00">Zip</text>
</g>
<!-- \\File -->
<g id="node29" class="node"><title>\\File</title>
<polygon fill="none" stroke="black" points="242,-304 188,-304 188,-268 242,-268 242,-304"/>
<text text-anchor="middle" x="215" y="-283.1" font-family="Courier,monospace" font-size="11.00">File</text>
</g>
<!-- \\Zip&#45;&gt;\\File -->
<g id="edge7" class="edge"><title>\\Zip&#45;&gt;\\File</title>
<path fill="none" stroke="black" d="M390.901,-549.623C378.784,-545.534 365.192,-539.049 356,-529 287.699,-454.335 353.698,-386.364 284,-313 275.348,-303.893 263.256,-297.805 251.607,-293.758"/>
<polygon fill="none" stroke="black" points="252.599,-290.401 242.013,-290.817 250.548,-297.094 252.599,-290.401"/>
</g>
<!-- \\Commento -->
<g id="node5" class="node"><title>\\Commento</title>
<polygon fill="none" stroke="black" points="250,-1600 180,-1600 180,-1564 250,-1564 250,-1600"/>
<text text-anchor="middle" x="215" y="-1579.1" font-family="Courier,monospace" font-size="11.00">Commento</text>
</g>
<!-- \\Commento&#45;&gt;\\Entita -->
<g id="edge9" class="edge"><title>\\Commento&#45;&gt;\\Entita</title>
<path fill="none" stroke="black" d="M179.443,-1575.64C167.122,-1571.69 154.326,-1565.31 146,-1555 70.5956,-1461.66 50.2276,-1071.14 45.9678,-962.28"/>
<polygon fill="none" stroke="black" points="49.4578,-961.946 45.5844,-952.085 42.4628,-962.209 49.4578,-961.946"/>
</g>
<!-- \\Utente -->
<g id="node6" class="node"><title>\\Utente</title>
<polygon fill="none" stroke="black" points="446,-1006 390,-1006 390,-970 446,-970 446,-1006"/>
<text text-anchor="middle" x="418" y="-985.1" font-family="Courier,monospace" font-size="11.00">Utente</text>
</g>
<!-- \\Persona -->
<g id="node34" class="node"><title>\\Persona</title>
<polygon fill="none" stroke="black" points="247,-1006 183,-1006 183,-970 247,-970 247,-1006"/>
<text text-anchor="middle" x="215" y="-985.1" font-family="Courier,monospace" font-size="11.00">Persona</text>
</g>
<!-- \\Utente&#45;&gt;\\Persona -->
<g id="edge11" class="edge"><title>\\Utente&#45;&gt;\\Persona</title>
<path fill="none" stroke="black" d="M389.346,-988C354.934,-988 296.911,-988 257.332,-988"/>
<polygon fill="none" stroke="black" points="257.193,-984.5 247.193,-988 257.193,-991.5 257.193,-984.5"/>
</g>
<!-- \\Appartenenza -->
<g id="node7" class="node"><title>\\Appartenenza</title>
<polygon fill="none" stroke="black" points="264,-1546 166,-1546 166,-1510 264,-1510 264,-1546"/>
<text text-anchor="middle" x="215" y="-1525.1" font-family="Courier,monospace" font-size="11.00">Appartenenza</text>
</g>
<!-- \\Appartenenza&#45;&gt;\\Entita -->
<g id="edge13" class="edge"><title>\\Appartenenza&#45;&gt;\\Entita</title>
<path fill="none" stroke="black" d="M165.942,-1516.13C158.362,-1512.39 151.303,-1507.46 146,-1501 76.9343,-1416.81 52.2797,-1065.42 46.4612,-962.465"/>
<polygon fill="none" stroke="black" points="49.942,-962.018 45.899,-952.225 42.9526,-962.402 49.942,-962.018"/>
</g>
<!-- \\Anonimo -->
<g id="node8" class="node"><title>\\Anonimo</title>
<polygon fill="none" stroke="black" points="640,-898 576,-898 576,-862 640,-862 640,-898"/>
<text text-anchor="middle" x="608" y="-877.1" font-family="Courier,monospace" font-size="11.00">Anonimo</text>
</g>
<!-- \\Anonimo&#45;&gt;\\Utente -->
<g id="edge15" class="edge"><title>\\Anonimo&#45;&gt;\\Utente</title>
<path fill="none" stroke="black" d="M575.743,-894.233C567.819,-898.086 559.47,-902.457 552,-907 517.824,-927.784 514.571,-940.879 480,-961 472.488,-965.372 464.136,-969.474 456.058,-973.095"/>
<polygon fill="none" stroke="black" points="454.556,-969.931 446.767,-977.114 457.335,-976.356 454.556,-969.931"/>
</g>
<!-- \\Documento -->
<g id="node9" class="node"><title>\\Documento</title>
<polygon fill="none" stroke="black" points="253,-1492 177,-1492 177,-1456 253,-1456 253,-1492"/>
<text text-anchor="middle" x="215" y="-1471.1" font-family="Courier,monospace" font-size="11.00">Documento</text>
</g>
<!-- \\Documento&#45;&gt;\\Entita -->
<g id="edge17" class="edge"><title>\\Documento&#45;&gt;\\Entita</title>
<path fill="none" stroke="black" d="M176.392,-1466.39C165.116,-1462.38 153.754,-1456.28 146,-1447 83.1584,-1371.8 54.4712,-1058.49 47.0301,-962.246"/>
<polygon fill="none" stroke="black" points="50.5079,-961.819 46.2637,-952.111 43.5279,-962.347 50.5079,-961.819"/>
</g>
<!-- \\Mail -->
<g id="node10" class="node"><title>\\Mail</title>
<polygon fill="none" stroke="black" points="635,-1114 581,-1114 581,-1078 635,-1078 635,-1114"/>
<text text-anchor="middle" x="608" y="-1093.1" font-family="Courier,monospace" font-size="11.00">Mail</text>
</g>
<!-- \\Sessione -->
<g id="node11" class="node"><title>\\Sessione</title>
<polygon fill="none" stroke="black" points="250,-1438 180,-1438 180,-1402 250,-1402 250,-1438"/>
<text text-anchor="middle" x="215" y="-1417.1" font-family="Courier,monospace" font-size="11.00">Sessione</text>
</g>
<!-- \\Sessione&#45;&gt;\\Entita -->
<g id="edge19" class="edge"><title>\\Sessione&#45;&gt;\\Entita</title>
<path fill="none" stroke="black" d="M179.388,-1413.27C167.21,-1409.29 154.525,-1402.97 146,-1393 89.3913,-1326.77 56.9409,-1051.59 47.7388,-962.191"/>
<polygon fill="none" stroke="black" points="51.2206,-961.833 46.7318,-952.236 44.2561,-962.537 51.2206,-961.833"/>
</g>
<!-- \\Area -->
<g id="node13" class="node"><title>\\Area</title>
<polygon fill="none" stroke="black" points="242,-1384 188,-1384 188,-1348 242,-1348 242,-1384"/>
<text text-anchor="middle" x="215" y="-1363.1" font-family="Courier,monospace" font-size="11.00">Area</text>
</g>
<!-- \\Area&#45;&gt;\\Entita -->
<g id="edge21" class="edge"><title>\\Area&#45;&gt;\\Entita</title>
<path fill="none" stroke="black" d="M187.97,-1361.6C173.583,-1357.9 156.701,-1351.17 146,-1339 95.634,-1281.7 59.7963,-1044.7 48.658,-962.35"/>
<polygon fill="none" stroke="black" points="52.0988,-961.672 47.308,-952.223 45.1602,-962.598 52.0988,-961.672"/>
</g>
<!-- \\RichiestaTurno -->
<g id="node14" class="node"><title>\\RichiestaTurno</title>
<polygon fill="none" stroke="black" points="270,-1330 160,-1330 160,-1294 270,-1294 270,-1330"/>
<text text-anchor="middle" x="215" y="-1309.1" font-family="Courier,monospace" font-size="11.00">RichiestaTurno</text>
</g>
<!-- \\RichiestaTurno&#45;&gt;\\Entita -->
<g id="edge23" class="edge"><title>\\RichiestaTurno&#45;&gt;\\Entita</title>
<path fill="none" stroke="black" d="M159.258,-1295.73C154.352,-1292.73 149.812,-1289.18 146,-1285 101.832,-1236.53 63.1061,-1037.27 49.8588,-962.51"/>
<polygon fill="none" stroke="black" points="53.2638,-961.662 48.0915,-952.416 46.3687,-962.87 53.2638,-961.662"/>
</g>
<!-- \\Annunci -->
<g id="node15" class="node"><title>\\Annunci</title>
<polygon fill="none" stroke="black" points="247,-1276 183,-1276 183,-1240 247,-1240 247,-1276"/>
<text text-anchor="middle" x="215" y="-1255.1" font-family="Courier,monospace" font-size="11.00">Annunci</text>
</g>
<!-- \\Annunci&#45;&gt;\\Entita -->
<g id="edge25" class="edge"><title>\\Annunci&#45;&gt;\\Entita</title>
<path fill="none" stroke="black" d="M182.811,-1251.65C169.891,-1247.65 155.777,-1241.23 146,-1231 72.1134,-1153.7 52.1518,-1020.26 46.8608,-962.273"/>
<polygon fill="none" stroke="black" points="50.3264,-961.712 46.0101,-952.036 43.3504,-962.292 50.3264,-961.712"/>
</g>
<!-- \\Gruppo -->
<g id="node16" class="node"><title>\\Gruppo</title>
<polygon fill="none" stroke="black" points="243,-1222 187,-1222 187,-1186 243,-1186 243,-1222"/>
<text text-anchor="middle" x="215" y="-1201.1" font-family="Courier,monospace" font-size="11.00">Gruppo</text>
</g>
<!-- \\Gruppo&#45;&gt;\\Entita -->
<g id="edge27" class="edge"><title>\\Gruppo&#45;&gt;\\Entita</title>
<path fill="none" stroke="black" d="M186.264,-1198.28C172.615,-1194.3 156.937,-1187.71 146,-1177 84.1155,-1116.4 58.4975,-1012.28 49.3706,-962.34"/>
<polygon fill="none" stroke="black" points="52.7796,-961.514 47.6201,-952.26 45.8828,-962.712 52.7796,-961.514"/>
</g>
<!-- \\Patentirichieste -->
<g id="node17" class="node"><title>\\Patentirichieste</title>
<polygon fill="none" stroke="black" points="277,-1168 153,-1168 153,-1132 277,-1132 277,-1168"/>
<text text-anchor="middle" x="215" y="-1147.1" font-family="Courier,monospace" font-size="11.00">Patentirichieste</text>
</g>
<!-- \\Patentirichieste&#45;&gt;\\Entita -->
<g id="edge29" class="edge"><title>\\Patentirichieste&#45;&gt;\\Entita</title>
<path fill="none" stroke="black" d="M158.4,-1131.87C153.959,-1129.28 149.75,-1126.33 146,-1123 95.7294,-1078.33 66.0941,-1002.51 53.0171,-961.802"/>
<polygon fill="none" stroke="black" points="56.2854,-960.525 49.9758,-952.014 49.6006,-962.602 56.2854,-960.525"/>
</g>
<!-- \\Reperibilita -->
<g id="node18" class="node"><title>\\Reperibilita</title>
<polygon fill="none" stroke="black" points="264,-1114 166,-1114 166,-1078 264,-1078 264,-1114"/>
<text text-anchor="middle" x="215" y="-1093.1" font-family="Courier,monospace" font-size="11.00">Reperibilita</text>
</g>
<!-- \\Reperibilita&#45;&gt;\\Entita -->
<g id="edge31" class="edge"><title>\\Reperibilita&#45;&gt;\\Entita</title>
<path fill="none" stroke="black" d="M165.674,-1080.64C158.724,-1077.38 151.936,-1073.52 146,-1069 107.333,-1039.56 76.3381,-991.522 59.3282,-961.394"/>
<polygon fill="none" stroke="black" points="62.1996,-959.353 54.3049,-952.287 56.0703,-962.734 62.1996,-959.353"/>
</g>
<!-- \\GeocoderResult -->
<g id="node19" class="node"><title>\\GeocoderResult</title>
<polygon fill="none" stroke="black" points="663,-1060 553,-1060 553,-1024 663,-1024 663,-1060"/>
<text text-anchor="middle" x="608" y="-1039.1" font-family="Courier,monospace" font-size="11.00">GeocoderResult</text>
</g>
<!-- \\AppartenenzaGruppo -->
<g id="node20" class="node"><title>\\AppartenenzaGruppo</title>
<polygon fill="none" stroke="black" points="284,-1060 146,-1060 146,-1024 284,-1024 284,-1060"/>
<text text-anchor="middle" x="215" y="-1039.1" font-family="Courier,monospace" font-size="11.00">AppartenenzaGruppo</text>
</g>
<!-- \\AppartenenzaGruppo&#45;&gt;\\Entita -->
<g id="edge33" class="edge"><title>\\AppartenenzaGruppo&#45;&gt;\\Entita</title>
<path fill="none" stroke="black" d="M163.683,-1023.94C157.592,-1021.21 151.567,-1018.22 146,-1015 118.64,-999.172 90.862,-976.292 71.3811,-958.883"/>
<polygon fill="none" stroke="black" points="73.5836,-956.155 63.8242,-952.031 68.8819,-961.341 73.5836,-956.155"/>
</g>
<!-- \\Ricerca -->
<g id="node21" class="node"><title>\\Ricerca</title>
<polygon fill="none" stroke="black" points="640,-1006 576,-1006 576,-970 640,-970 640,-1006"/>
<text text-anchor="middle" x="608" y="-985.1" font-family="Courier,monospace" font-size="11.00">Ricerca</text>
</g>
<!-- \\APIServer -->
<g id="node22" class="node"><title>\\APIServer</title>
<polygon fill="none" stroke="black" points="646,-952 570,-952 570,-916 646,-916 646,-952"/>
<text text-anchor="middle" x="608" y="-931.1" font-family="Courier,monospace" font-size="11.00">APIServer</text>
</g>
<!-- \\Volontario -->
<g id="node23" class="node"><title>\\Volontario</title>
<polygon fill="none" stroke="black" points="650,-1168 566,-1168 566,-1132 650,-1132 650,-1168"/>
<text text-anchor="middle" x="608" y="-1147.1" font-family="Courier,monospace" font-size="11.00">Volontario</text>
</g>
<!-- \\Volontario&#45;&gt;\\Utente -->
<g id="edge35" class="edge"><title>\\Volontario&#45;&gt;\\Utente</title>
<path fill="none" stroke="black" d="M566.406,-1131.93C561.402,-1129.19 556.483,-1126.19 552,-1123 507.016,-1090.94 463.607,-1043.14 438.921,-1013.86"/>
<polygon fill="none" stroke="black" points="441.56,-1011.56 432.469,-1006.12 436.184,-1016.04 441.56,-1011.56"/>
</g>
<!-- \\Veicoli -->
<g id="node24" class="node"><title>\\Veicoli</title>
<polygon fill="none" stroke="black" points="450,-952 386,-952 386,-916 450,-916 450,-952"/>
<text text-anchor="middle" x="418" y="-931.1" font-family="Courier,monospace" font-size="11.00">Veicoli</text>
</g>
<!-- \\Oggetto -->
<g id="node32" class="node"><title>\\Oggetto</title>
<polygon fill="none" stroke="black" points="247,-952 183,-952 183,-916 247,-916 247,-952"/>
<text text-anchor="middle" x="215" y="-931.1" font-family="Courier,monospace" font-size="11.00">Oggetto</text>
</g>
<!-- \\Veicoli&#45;&gt;\\Oggetto -->
<g id="edge37" class="edge"><title>\\Veicoli&#45;&gt;\\Oggetto</title>
<path fill="none" stroke="black" d="M385.834,-934C351.089,-934 295.582,-934 257.319,-934"/>
<polygon fill="none" stroke="black" points="257.015,-930.5 247.015,-934 257.015,-937.5 257.015,-930.5"/>
</g>
<!-- \\Regionale -->
<g id="node25" class="node"><title>\\Regionale</title>
<polygon fill="none" stroke="black" points="646,-628 570,-628 570,-592 646,-592 646,-628"/>
<text text-anchor="middle" x="608" y="-607.1" font-family="Courier,monospace" font-size="11.00">Regionale</text>
</g>
<!-- \\GeoPolitica -->
<g id="node49" class="node"><title>\\GeoPolitica</title>
<polygon fill="none" stroke="black" points="464,-466 372,-466 372,-430 464,-430 464,-466"/>
<text text-anchor="start" x="384" y="-453.433" font-family="Courier,monospace" font-size="11.00">«abstract»</text>
<text text-anchor="start" x="380.5" y="-440.233" font-family="Courier,monospace" font-size="11.00">GeoPolitica</text>
</g>
<!-- \\Regionale&#45;&gt;\\GeoPolitica -->
<g id="edge39" class="edge"><title>\\Regionale&#45;&gt;\\GeoPolitica</title>
<path fill="none" stroke="black" d="M569.252,-594.711C563.126,-591.365 557.13,-587.463 552,-583 508.478,-545.133 524.243,-512.021 480,-475 477.763,-473.128 475.376,-471.365 472.89,-469.708"/>
<polygon fill="none" stroke="black" points="474.506,-466.597 464.126,-464.475 470.917,-472.607 474.506,-466.597"/>
</g>
<!-- \\ElementoRichiesta -->
<g id="node26" class="node"><title>\\ElementoRichiesta</title>
<polygon fill="none" stroke="black" points="280,-898 150,-898 150,-862 280,-862 280,-898"/>
<text text-anchor="middle" x="215" y="-877.1" font-family="Courier,monospace" font-size="11.00">ElementoRichiesta</text>
</g>
<!-- \\ElementoRichiesta&#45;&gt;\\Entita -->
<g id="edge41" class="edge"><title>\\ElementoRichiesta&#45;&gt;\\Entita</title>
<path fill="none" stroke="black" d="M157.92,-898.131C133.327,-905.943 105.227,-914.869 83.2106,-921.863"/>
<polygon fill="none" stroke="black" points="82.0286,-918.566 73.5575,-924.929 84.1478,-925.237 82.0286,-918.566"/>
</g>
<!-- \\ICalendar -->
<g id="node27" class="node"><title>\\ICalendar</title>
<polygon fill="none" stroke="black" points="456,-520 380,-520 380,-484 456,-484 456,-520"/>
<text text-anchor="middle" x="418" y="-499.1" font-family="Courier,monospace" font-size="11.00">ICalendar</text>
</g>
<!-- \\ICalendar&#45;&gt;\\File -->
<g id="edge43" class="edge"><title>\\ICalendar&#45;&gt;\\File</title>
<path fill="none" stroke="black" d="M379.187,-490.348C370.794,-486.477 362.5,-481.451 356,-475 300.078,-419.496 340.959,-367.439 284,-313 275.153,-304.545 263.353,-298.645 252.016,-294.569"/>
<polygon fill="none" stroke="black" points="252.85,-291.161 242.259,-291.438 250.711,-297.826 252.85,-291.161"/>
</g>
<!-- \\Errore -->
<g id="node28" class="node"><title>\\Errore</title>
<polygon fill="none" stroke="black" points="636,-304 580,-304 580,-268 636,-268 636,-304"/>
<text text-anchor="middle" x="608" y="-283.1" font-family="Courier,monospace" font-size="11.00">Errore</text>
</g>
<!-- \\Exception -->
<g id="node78" class="node"><title>\\Exception</title>
<ellipse fill="none" stroke="black" cx="418" cy="-126" rx="62.2254" ry="18.3848"/>
<text text-anchor="middle" x="418" y="-122.4" font-family="Times Roman,serif" font-size="14.00" fill="gray">\Exception</text>
</g>
<!-- \\Errore&#45;&gt;\\Exception -->
<g id="edge45" class="edge"><title>\\Errore&#45;&gt;\\Exception</title>
<path fill="none" stroke="black" d="M579.405,-275.832C570.003,-271.589 559.936,-265.993 552,-259 507.882,-220.124 526.158,-184.432 480,-148 477.731,-146.209 475.304,-144.557 472.773,-143.034"/>
<polygon fill="none" stroke="black" points="474.325,-139.895 463.845,-138.339 471.067,-146.091 474.325,-139.895"/>
</g>
<!-- \\File&#45;&gt;\\Entita -->
<g id="edge47" class="edge"><title>\\File&#45;&gt;\\Entita</title>
<path fill="none" stroke="black" d="M187.916,-289.978C173.328,-293.548 156.266,-300.292 146,-313 70.5956,-406.338 50.2276,-796.86 45.9678,-905.72"/>
<polygon fill="none" stroke="black" points="42.4628,-905.791 45.5844,-915.915 49.4578,-906.054 42.4628,-905.791"/>
</g>
<!-- \\Quota -->
<g id="node30" class="node"><title>\\Quota</title>
<polygon fill="none" stroke="black" points="242,-844 188,-844 188,-808 242,-808 242,-844"/>
<text text-anchor="middle" x="215" y="-823.1" font-family="Courier,monospace" font-size="11.00">Quota</text>
</g>
<!-- \\Quota&#45;&gt;\\Entita -->
<g id="edge49" class="edge"><title>\\Quota&#45;&gt;\\Entita</title>
<path fill="none" stroke="black" d="M187.919,-834.453C174.825,-839.069 159.139,-845.399 146,-853 118.64,-868.828 90.862,-891.708 71.3811,-909.117"/>
<polygon fill="none" stroke="black" points="68.8819,-906.659 63.8242,-915.969 73.5836,-911.845 68.8819,-906.659"/>
</g>
<!-- \\Comitato -->
<g id="node31" class="node"><title>\\Comitato</title>
<polygon fill="none" stroke="black" points="643,-574 573,-574 573,-538 643,-538 643,-574"/>
<text text-anchor="middle" x="608" y="-553.1" font-family="Courier,monospace" font-size="11.00">Comitato</text>
</g>
<!-- \\Comitato&#45;&gt;\\GeoPolitica -->
<g id="edge51" class="edge"><title>\\Comitato&#45;&gt;\\GeoPolitica</title>
<path fill="none" stroke="black" d="M572.494,-540.169C565.567,-536.723 558.455,-532.926 552,-529 517.824,-508.216 514.571,-495.121 480,-475 477.479,-473.533 474.864,-472.096 472.196,-470.698"/>
<polygon fill="none" stroke="black" points="473.494,-467.434 462.983,-466.103 470.37,-473.698 473.494,-467.434"/>
</g>
<!-- \\Oggetto&#45;&gt;\\Entita -->
<g id="edge53" class="edge"><title>\\Oggetto&#45;&gt;\\Entita</title>
<path fill="none" stroke="black" d="M182.624,-934C154.445,-934 113.544,-934 83.6547,-934"/>
<polygon fill="none" stroke="black" points="83.5808,-930.5 73.5807,-934 83.5807,-937.5 83.5808,-930.5"/>
</g>
<!-- \\Avatar -->
<g id="node33" class="node"><title>\\Avatar</title>
<polygon fill="none" stroke="black" points="243,-790 187,-790 187,-754 243,-754 243,-790"/>
<text text-anchor="middle" x="215" y="-769.1" font-family="Courier,monospace" font-size="11.00">Avatar</text>
</g>
<!-- \\Avatar&#45;&gt;\\Entita -->
<g id="edge55" class="edge"><title>\\Avatar&#45;&gt;\\Entita</title>
<path fill="none" stroke="black" d="M186.315,-779.283C173.153,-783.57 157.872,-789.961 146,-799 107.333,-828.44 76.3381,-876.478 59.3282,-906.606"/>
<polygon fill="none" stroke="black" points="56.0703,-905.266 54.3049,-915.713 62.1996,-908.647 56.0703,-905.266"/>
</g>
<!-- \\Persona&#45;&gt;\\Entita -->
<g id="edge57" class="edge"><title>\\Persona&#45;&gt;\\Entita</title>
<path fill="none" stroke="black" d="M182.624,-977.716C154.322,-968.726 113.186,-955.659 83.2637,-946.154"/>
<polygon fill="none" stroke="black" points="84.1711,-942.77 73.5807,-943.079 82.0518,-949.442 84.1711,-942.77"/>
</g>
<!-- \\Trasferimento -->
<g id="node35" class="node"><title>\\Trasferimento</title>
<polygon fill="none" stroke="black" points="267,-736 163,-736 163,-700 267,-700 267,-736"/>
<text text-anchor="middle" x="215" y="-715.1" font-family="Courier,monospace" font-size="11.00">Trasferimento</text>
</g>
<!-- \\Trasferimento&#45;&gt;\\Entita -->
<g id="edge59" class="edge"><title>\\Trasferimento&#45;&gt;\\Entita</title>
<path fill="none" stroke="black" d="M162.91,-733.646C156.816,-736.804 151,-740.557 146,-745 95.7294,-789.672 66.0941,-865.492 53.0171,-906.198"/>
<polygon fill="none" stroke="black" points="49.6006,-905.398 49.9758,-915.986 56.2854,-907.475 49.6006,-905.398"/>
</g>
<!-- \\Turno -->
<g id="node36" class="node"><title>\\Turno</title>
<polygon fill="none" stroke="black" points="242,-682 188,-682 188,-646 242,-646 242,-682"/>
<text text-anchor="middle" x="215" y="-661.1" font-family="Courier,monospace" font-size="11.00">Turno</text>
</g>
<!-- \\Turno&#45;&gt;\\Entita -->
<g id="edge61" class="edge"><title>\\Turno&#45;&gt;\\Entita</title>
<path fill="none" stroke="black" d="M187.973,-669.231C173.941,-673.156 157.396,-679.84 146,-691 84.1155,-751.603 58.4975,-855.719 49.3706,-905.66"/>
<polygon fill="none" stroke="black" points="45.8828,-905.288 47.6201,-915.74 52.7796,-906.486 45.8828,-905.288"/>
</g>
<!-- \\Attivita -->
<g id="node37" class="node"><title>\\Attivita</title>
<polygon fill="none" stroke="black" points="453,-250 383,-250 383,-214 453,-214 453,-250"/>
<text text-anchor="middle" x="418" y="-229.1" font-family="Courier,monospace" font-size="11.00">Attivita</text>
</g>
<!-- \\GeoEntita -->
<g id="node51" class="node"><title>\\GeoEntita</title>
<polygon fill="none" stroke="black" points="253,-250 177,-250 177,-214 253,-214 253,-250"/>
<text text-anchor="middle" x="215" y="-229.1" font-family="Courier,monospace" font-size="11.00">GeoEntita</text>
</g>
<!-- \\Attivita&#45;&gt;\\GeoEntita -->
<g id="edge63" class="edge"><title>\\Attivita&#45;&gt;\\GeoEntita</title>
<path fill="none" stroke="black" d="M382.175,-232C349.335,-232 300.42,-232 263.976,-232"/>
<polygon fill="none" stroke="black" points="263.576,-228.5 253.575,-232 263.575,-235.5 263.576,-228.5"/>
</g>
<!-- \\Provinciale -->
<g id="node38" class="node"><title>\\Provinciale</title>
<polygon fill="none" stroke="black" points="653,-466 563,-466 563,-430 653,-430 653,-466"/>
<text text-anchor="middle" x="608" y="-445.1" font-family="Courier,monospace" font-size="11.00">Provinciale</text>
</g>
<!-- \\Provinciale&#45;&gt;\\GeoPolitica -->
<g id="edge65" class="edge"><title>\\Provinciale&#45;&gt;\\GeoPolitica</title>
<path fill="none" stroke="black" d="M562.49,-448C535.993,-448 502.368,-448 474.225,-448"/>
<polygon fill="none" stroke="black" points="474.127,-444.5 464.127,-448 474.127,-451.5 474.127,-444.5"/>
</g>
<!-- \\PDF -->
<g id="node39" class="node"><title>\\PDF</title>
<polygon fill="none" stroke="black" points="635,-520 581,-520 581,-484 635,-484 635,-520"/>
<text text-anchor="middle" x="608" y="-499.1" font-family="Courier,monospace" font-size="11.00">PDF</text>
</g>
<!-- \\Estensione -->
<g id="node40" class="node"><title>\\Estensione</title>
<polygon fill="none" stroke="black" points="257,-628 173,-628 173,-592 257,-592 257,-628"/>
<text text-anchor="middle" x="215" y="-607.1" font-family="Courier,monospace" font-size="11.00">Estensione</text>
</g>
<!-- \\Estensione&#45;&gt;\\Entita -->
<g id="edge67" class="edge"><title>\\Estensione&#45;&gt;\\Entita</title>
<path fill="none" stroke="black" d="M172.804,-619.896C162.987,-623.864 153.288,-629.375 146,-637 72.1134,-714.303 52.1518,-847.738 46.8608,-905.727"/>
<polygon fill="none" stroke="black" points="43.3504,-905.708 46.0101,-915.964 50.3264,-906.288 43.3504,-905.708"/>
</g>
<!-- \\Autorizzazione -->
<g id="node41" class="node"><title>\\Autorizzazione</title>
<polygon fill="none" stroke="black" points="270,-574 160,-574 160,-538 270,-538 270,-574"/>
<text text-anchor="middle" x="215" y="-553.1" font-family="Courier,monospace" font-size="11.00">Autorizzazione</text>
</g>
<!-- \\Autorizzazione&#45;&gt;\\Entita -->
<g id="edge69" class="edge"><title>\\Autorizzazione&#45;&gt;\\Entita</title>
<path fill="none" stroke="black" d="M159.258,-572.274C154.352,-575.273 149.812,-578.816 146,-583 101.832,-631.47 63.1061,-830.731 49.8588,-905.49"/>
<polygon fill="none" stroke="black" points="46.3687,-905.13 48.0915,-915.584 53.2638,-906.338 46.3687,-905.13"/>
</g>
<!-- \\Coturno -->
<g id="node42" class="node"><title>\\Coturno</title>
<polygon fill="none" stroke="black" points="247,-520 183,-520 183,-484 247,-484 247,-520"/>
<text text-anchor="middle" x="215" y="-499.1" font-family="Courier,monospace" font-size="11.00">Coturno</text>
</g>
<!-- \\Coturno&#45;&gt;\\Entita -->
<g id="edge71" class="edge"><title>\\Coturno&#45;&gt;\\Entita</title>
<path fill="none" stroke="black" d="M182.74,-507.852C169.651,-511.775 155.427,-518.276 146,-529 95.634,-586.298 59.7963,-823.297 48.658,-905.65"/>
<polygon fill="none" stroke="black" points="45.1602,-905.402 47.308,-915.777 52.0988,-906.328 45.1602,-905.402"/>
</g>
<!-- \\Nazionale -->
<g id="node43" class="node"><title>\\Nazionale</title>
<polygon fill="none" stroke="black" points="646,-736 570,-736 570,-700 646,-700 646,-736"/>
<text text-anchor="middle" x="608" y="-715.1" font-family="Courier,monospace" font-size="11.00">Nazionale</text>
</g>
<!-- \\Nazionale&#45;&gt;\\GeoPolitica -->
<g id="edge73" class="edge"><title>\\Nazionale&#45;&gt;\\GeoPolitica</title>
<path fill="none" stroke="black" d="M569.311,-704.457C562.89,-700.865 556.777,-696.429 552,-691 485.15,-615.032 548.301,-549.665 480,-475 477.781,-472.574 475.306,-470.357 472.657,-468.33"/>
<polygon fill="none" stroke="black" points="474.549,-465.385 464.272,-462.807 470.698,-471.23 474.549,-465.385"/>
</g>
<!-- \\TitoloPersonale -->
<g id="node44" class="node"><title>\\TitoloPersonale</title>
<polygon fill="none" stroke="black" points="274,-466 156,-466 156,-430 274,-430 274,-466"/>
<text text-anchor="middle" x="215" y="-445.1" font-family="Courier,monospace" font-size="11.00">TitoloPersonale</text>
</g>
<!-- \\TitoloPersonale&#45;&gt;\\Entita -->
<g id="edge75" class="edge"><title>\\TitoloPersonale&#45;&gt;\\Entita</title>
<path fill="none" stroke="black" d="M155.739,-466.197C152.145,-468.757 148.842,-471.675 146,-475 89.3913,-541.234 56.9409,-816.409 47.7388,-905.809"/>
<polygon fill="none" stroke="black" points="44.2561,-905.463 46.7318,-915.764 51.2206,-906.167 44.2561,-905.463"/>
</g>
<!-- \\Delegato -->
<g id="node45" class="node"><title>\\Delegato</title>
<polygon fill="none" stroke="black" points="250,-412 180,-412 180,-376 250,-376 250,-412"/>
<text text-anchor="middle" x="215" y="-391.1" font-family="Courier,monospace" font-size="11.00">Delegato</text>
</g>
<!-- \\Delegato&#45;&gt;\\Entita -->
<g id="edge77" class="edge"><title>\\Delegato&#45;&gt;\\Entita</title>
<path fill="none" stroke="black" d="M179.267,-400.626C167.076,-404.6 154.414,-410.932 146,-421 83.1584,-496.201 54.4712,-809.512 47.0301,-905.754"/>
<polygon fill="none" stroke="black" points="43.5279,-905.653 46.2637,-915.889 50.5079,-906.181 43.5279,-905.653"/>
</g>
<!-- \\Email -->
<g id="node46" class="node"><title>\\Email</title>
<polygon fill="none" stroke="black" points="635,-412 581,-412 581,-376 635,-376 635,-412"/>
<text text-anchor="middle" x="608" y="-391.1" font-family="Courier,monospace" font-size="11.00">Email</text>
</g>
<!-- \\Riserva -->
<g id="node47" class="node"><title>\\Riserva</title>
<polygon fill="none" stroke="black" points="247,-358 183,-358 183,-322 247,-322 247,-358"/>
<text text-anchor="middle" x="215" y="-337.1" font-family="Courier,monospace" font-size="11.00">Riserva</text>
</g>
<!-- \\Riserva&#45;&gt;\\Entita -->
<g id="edge79" class="edge"><title>\\Riserva&#45;&gt;\\Entita</title>
<path fill="none" stroke="black" d="M182.739,-345.445C169.487,-349.301 155.138,-355.861 146,-367 76.9343,-451.187 52.2797,-802.578 46.4612,-905.535"/>
<polygon fill="none" stroke="black" points="42.9526,-905.598 45.899,-915.775 49.942,-905.982 42.9526,-905.598"/>
</g>
<!-- \\Excel -->
<g id="node48" class="node"><title>\\Excel</title>
<polygon fill="none" stroke="black" points="445,-628 391,-628 391,-592 445,-592 445,-628"/>
<text text-anchor="middle" x="418" y="-607.1" font-family="Courier,monospace" font-size="11.00">Excel</text>
</g>
<!-- \\Excel&#45;&gt;\\File -->
<g id="edge81" class="edge"><title>\\Excel&#45;&gt;\\File</title>
<path fill="none" stroke="black" d="M390.936,-603.975C378.677,-599.949 364.957,-593.414 356,-583 275.014,-488.844 366.747,-405.612 284,-313 275.63,-303.632 263.605,-297.483 251.932,-293.459"/>
<polygon fill="none" stroke="black" points="252.881,-290.09 242.297,-290.555 250.861,-296.792 252.881,-290.09"/>
</g>
<!-- \\GeoPolitica&#45;&gt;\\GeoEntita -->
<g id="edge83" class="edge"><title>\\GeoPolitica&#45;&gt;\\GeoEntita</title>
<path fill="none" stroke="black" d="M409.603,-429.722C391.662,-392.549 346.11,-307.555 284,-259 277.729,-254.098 270.459,-249.988 263.039,-246.574"/>
<polygon fill="none" stroke="black" points="264.198,-243.265 253.623,-242.614 261.484,-249.717 264.198,-243.265"/>
</g>
<!-- \\Geocoder -->
<g id="node50" class="node"><title>\\Geocoder</title>
<polygon fill="none" stroke="black" points="643,-358 573,-358 573,-322 643,-322 643,-358"/>
<text text-anchor="middle" x="608" y="-337.1" font-family="Courier,monospace" font-size="11.00">Geocoder</text>
</g>
<!-- \\GeoEntita&#45;&gt;\\Entita -->
<g id="edge85" class="edge"><title>\\GeoEntita&#45;&gt;\\Entita</title>
<path fill="none" stroke="black" d="M176.494,-239.268C165.085,-243.264 153.619,-249.445 146,-259 64.2345,-361.537 48.3561,-791.434 45.5561,-905.899"/>
<polygon fill="none" stroke="black" points="42.0554,-905.892 45.3242,-915.97 49.0535,-906.053 42.0554,-905.892"/>
</g>
<!-- \\DT -->
<g id="node52" class="node"><title>\\DT</title>
<polygon fill="none" stroke="black" points="635,-250 581,-250 581,-214 635,-214 635,-250"/>
<text text-anchor="middle" x="608" y="-229.1" font-family="Courier,monospace" font-size="11.00">DT</text>
</g>
<!-- \\DateTime -->
<g id="node100" class="node"><title>\\DateTime</title>
<ellipse fill="none" stroke="black" cx="418" cy="-72" rx="62.2254" ry="18.3848"/>
<text text-anchor="middle" x="418" y="-68.4" font-family="Times Roman,serif" font-size="14.00" fill="gray">\DateTime</text>
</g>
<!-- \\DT&#45;&gt;\\DateTime -->
<g id="edge87" class="edge"><title>\\DT&#45;&gt;\\DateTime</title>
<path fill="none" stroke="black" d="M580.922,-222.376C571.128,-218.05 560.418,-212.261 552,-205 508.873,-167.804 523.835,-135.358 480,-99 476.244,-95.8849 472.074,-93.0695 467.722,-90.5388"/>
<polygon fill="none" stroke="black" points="469.089,-87.3031 458.611,-85.7389 465.827,-93.4964 469.089,-87.3031"/>
</g>
<!-- \\Locale -->
<g id="node53" class="node"><title>\\Locale</title>
<polygon fill="none" stroke="black" points="636,-682 580,-682 580,-646 636,-646 636,-682"/>
<text text-anchor="middle" x="608" y="-661.1" font-family="Courier,monospace" font-size="11.00">Locale</text>
</g>
<!-- \\Locale&#45;&gt;\\GeoPolitica -->
<g id="edge89" class="edge"><title>\\Locale&#45;&gt;\\GeoPolitica</title>
<path fill="none" stroke="black" d="M579.328,-654.774C569.701,-650.565 559.513,-644.749 552,-637 497.158,-580.429 535.922,-530.504 480,-475 477.852,-472.868 475.507,-470.891 473.028,-469.061"/>
<polygon fill="none" stroke="black" points="474.477,-465.832 464.168,-463.384 470.7,-471.726 474.477,-465.832"/>
</g>
<!-- \\Titolo -->
<g id="node54" class="node"><title>\\Titolo</title>
<polygon fill="none" stroke="black" points="243,-196 187,-196 187,-160 243,-160 243,-196"/>
<text text-anchor="middle" x="215" y="-175.1" font-family="Courier,monospace" font-size="11.00">Titolo</text>
</g>
<!-- \\Titolo&#45;&gt;\\Entita -->
<g id="edge91" class="edge"><title>\\Titolo&#45;&gt;\\Entita</title>
<path fill="none" stroke="black" d="M186.413,-182.23C172.109,-185.858 155.797,-192.576 146,-205 101.652,-261.238 57.5107,-778.178 47.2333,-905.677"/>
<polygon fill="none" stroke="black" points="43.7313,-905.565 46.4218,-915.812 50.7089,-906.123 43.7313,-905.565"/>
</g>
<!-- \\ePDO -->
<g id="node55" class="node"><title>\\ePDO</title>
<polygon fill="none" stroke="black" points="635,-196 581,-196 581,-160 635,-160 635,-196"/>
<text text-anchor="middle" x="608" y="-175.1" font-family="Courier,monospace" font-size="11.00">ePDO</text>
</g>
<!-- \\PDO -->
<g id="node104" class="node"><title>\\PDO</title>
<ellipse fill="none" stroke="black" cx="418" cy="-18" rx="36.977" ry="18.3848"/>
<text text-anchor="middle" x="418" y="-14.4" font-family="Times Roman,serif" font-size="14.00" fill="gray">\PDO</text>
</g>
<!-- \\ePDO&#45;&gt;\\PDO -->
<g id="edge93" class="edge"><title>\\ePDO&#45;&gt;\\PDO</title>
<path fill="none" stroke="black" d="M594.457,-159.891C572.868,-132.059 528.148,-78.4822 480,-45 473.216,-40.2824 465.476,-36.1179 457.818,-32.5591"/>
<polygon fill="none" stroke="black" points="459.152,-29.3226 448.588,-28.5219 456.347,-35.736 459.152,-29.3226"/>
</g>
</g>
</svg>
