<?xml version="1.0" encoding="UTF-8" standalone="no"?>
<!DOCTYPE svg PUBLIC "-//W3C//DTD SVG 1.1//EN"
 "http://www.w3.org/Graphics/SVG/1.1/DTD/svg11.dtd">
<!-- Generated by graphviz version 2.26.3 (20100126.1600)
 -->
<!-- Title: G Pages: 1 -->
<svg width="688pt" height="1700pt"
 viewBox="0.00 0.00 688.00 1700.00" xmlns="http://www.w3.org/2000/svg" xmlns:xlink="http://www.w3.org/1999/xlink">
<g id="graph1" class="graph" transform="scale(1 1) rotate(0) translate(4 1696)">
<title>G</title>
<polygon fill="white" stroke="white" points="-4,5 -4,-1696 685,-1696 685,5 -4,5"/>
<g id="graph2" class="cluster"><title>cluster_Global</title>
<polyline fill="none" stroke="gray" points="20,-152 660,-152 "/>
<path fill="none" stroke="gray" d="M660,-152C666,-152 672,-158 672,-164"/>
<polyline fill="none" stroke="gray" points="672,-164 672,-1672 "/>
<path fill="none" stroke="gray" d="M672,-1672C672,-1678 666,-1684 660,-1684"/>
<polyline fill="none" stroke="gray" points="660,-1684 20,-1684 "/>
<path fill="none" stroke="gray" d="M20,-1684C14,-1684 8,-1678 8,-1672"/>
<polyline fill="none" stroke="gray" points="8,-1672 8,-164 "/>
<path fill="none" stroke="gray" d="M8,-164C8,-158 14,-152 20,-152"/>
<text text-anchor="middle" x="340" y="-1670.1" font-family="Times Roman,serif" font-size="11.00" fill="gray">\</text>
</g>
<!-- \\Partecipazione -->
<g id="node2" class="node"><title>\\Partecipazione</title>
<polygon fill="none" stroke="black" points="270,-1654 160,-1654 160,-1618 270,-1618 270,-1654"/>
<text text-anchor="middle" x="215" y="-1633.1" font-family="Courier,monospace" font-size="11.00">Partecipazione</text>
</g>
<!-- \\Entita -->
<g id="node11" class="node"><title>\\Entita</title>
<polygon fill="none" stroke="black" points="73,-925 17,-925 17,-889 73,-889 73,-925"/>
<text text-anchor="middle" x="45" y="-904.1" font-family="Courier,monospace" font-size="11.00">Entita</text>
</g>
<!-- \\Partecipazione&#45;&gt;\\Entita -->
<g id="edge3" class="edge"><title>\\Partecipazione&#45;&gt;\\Entita</title>
<path fill="none" stroke="black" d="M159.304,-1620.66C154.259,-1617.48 149.676,-1613.64 146,-1609 61.1493,-1501.98 47.5114,-1053.27 45.3827,-935.44"/>
<polygon fill="none" stroke="black" points="48.8765,-935.033 45.2106,-925.093 41.8775,-935.149 48.8765,-935.033"/>
</g>
<!-- \\Dimissione -->
<g id="node3" class="node"><title>\\Dimissione</title>
<polygon fill="none" stroke="black" points="257,-1600 173,-1600 173,-1564 257,-1564 257,-1600"/>
<text text-anchor="middle" x="215" y="-1579.1" font-family="Courier,monospace" font-size="11.00">Dimissione</text>
</g>
<!-- \\Dimissione&#45;&gt;\\Entita -->
<g id="edge5" class="edge"><title>\\Dimissione&#45;&gt;\\Entita</title>
<path fill="none" stroke="black" d="M172.929,-1573.37C162.749,-1569.37 152.843,-1563.53 146,-1555 67.4704,-1457.13 49.2957,-1047.44 45.7601,-935.415"/>
<polygon fill="none" stroke="black" points="49.2531,-935.127 45.4539,-925.237 42.2563,-935.338 49.2531,-935.127"/>
</g>
<!-- \\Zip -->
<g id="node4" class="node"><title>\\Zip</title>
<polygon fill="none" stroke="black" points="445,-628 391,-628 391,-592 445,-592 445,-628"/>
<text text-anchor="middle" x="418" y="-607.1" font-family="Courier,monospace" font-size="11.00">Zip</text>
</g>
<!-- \\File -->
<g id="node26" class="node"><title>\\File</title>
<polygon fill="none" stroke="black" points="242,-304 188,-304 188,-268 242,-268 242,-304"/>
<text text-anchor="middle" x="215" y="-283.1" font-family="Courier,monospace" font-size="11.00">File</text>
</g>
<!-- \\Zip&#45;&gt;\\File -->
<g id="edge7" class="edge"><title>\\Zip&#45;&gt;\\File</title>
<path fill="none" stroke="black" d="M390.936,-603.975C378.677,-599.949 364.957,-593.414 356,-583 275.014,-488.844 366.747,-405.612 284,-313 275.63,-303.632 263.605,-297.483 251.932,-293.459"/>
<polygon fill="none" stroke="black" points="252.881,-290.09 242.297,-290.555 250.861,-296.792 252.881,-290.09"/>
</g>
<!-- \\Commento -->
<g id="node5" class="node"><title>\\Commento</title>
<polygon fill="none" stroke="black" points="250,-1546 180,-1546 180,-1510 250,-1510 250,-1546"/>
<text text-anchor="middle" x="215" y="-1525.1" font-family="Courier,monospace" font-size="11.00">Commento</text>
</g>
<!-- \\Commento&#45;&gt;\\Entita -->
<g id="edge9" class="edge"><title>\\Commento&#45;&gt;\\Entita</title>
<path fill="none" stroke="black" d="M179.483,-1521.61C167.166,-1517.65 154.363,-1511.28 146,-1501 73.779,-1412.26 51.2358,-1041.43 46.2053,-935.421"/>
<polygon fill="none" stroke="black" points="49.6904,-935.014 45.7356,-925.185 42.6977,-935.335 49.6904,-935.014"/>
</g>
<!-- \\Utente -->
<g id="node6" class="node"><title>\\Utente</title>
<polygon fill="none" stroke="black" points="446,-952 390,-952 390,-916 446,-916 446,-952"/>
<text text-anchor="middle" x="418" y="-931.1" font-family="Courier,monospace" font-size="11.00">Utente</text>
</g>
<!-- \\Persona -->
<g id="node31" class="node"><title>\\Persona</title>
<polygon fill="none" stroke="black" points="247,-952 183,-952 183,-916 247,-916 247,-952"/>
<text text-anchor="middle" x="215" y="-931.1" font-family="Courier,monospace" font-size="11.00">Persona</text>
</g>
<!-- \\Utente&#45;&gt;\\Persona -->
<g id="edge11" class="edge"><title>\\Utente&#45;&gt;\\Persona</title>
<path fill="none" stroke="black" d="M389.346,-934C354.934,-934 296.911,-934 257.332,-934"/>
<polygon fill="none" stroke="black" points="257.193,-930.5 247.193,-934 257.193,-937.5 257.193,-930.5"/>
</g>
<!-- \\Appartenenza -->
<g id="node7" class="node"><title>\\Appartenenza</title>
<polygon fill="none" stroke="black" points="264,-1492 166,-1492 166,-1456 264,-1456 264,-1492"/>
<text text-anchor="middle" x="215" y="-1471.1" font-family="Courier,monospace" font-size="11.00">Appartenenza</text>
</g>
<!-- \\Appartenenza&#45;&gt;\\Entita -->
<g id="edge13" class="edge"><title>\\Appartenenza&#45;&gt;\\Entita</title>
<path fill="none" stroke="black" d="M165.989,-1462.1C158.403,-1458.35 151.331,-1453.44 146,-1447 80.0609,-1367.33 53.3585,-1035.11 46.7361,-935.408"/>
<polygon fill="none" stroke="black" points="50.2141,-934.954 46.0749,-925.201 43.2287,-935.406 50.2141,-934.954"/>
</g>
<!-- \\Anonimo -->
<g id="node8" class="node"><title>\\Anonimo</title>
<polygon fill="none" stroke="black" points="640,-871 576,-871 576,-835 640,-835 640,-871"/>
<text text-anchor="middle" x="608" y="-850.1" font-family="Courier,monospace" font-size="11.00">Anonimo</text>
</g>
<!-- \\Anonimo&#45;&gt;\\Utente -->
<g id="edge15" class="edge"><title>\\Anonimo&#45;&gt;\\Utente</title>
<path fill="none" stroke="black" d="M575.769,-866.741C542.672,-880.85 491.176,-902.804 456.087,-917.763"/>
<polygon fill="none" stroke="black" points="454.48,-914.643 446.654,-921.784 457.225,-921.082 454.48,-914.643"/>
</g>
<!-- \\Documento -->
<g id="node9" class="node"><title>\\Documento</title>
<polygon fill="none" stroke="black" points="253,-1438 177,-1438 177,-1402 253,-1402 253,-1438"/>
<text text-anchor="middle" x="215" y="-1417.1" font-family="Courier,monospace" font-size="11.00">Documento</text>
</g>
<!-- \\Documento&#45;&gt;\\Entita -->
<g id="edge17" class="edge"><title>\\Documento&#45;&gt;\\Entita</title>
<path fill="none" stroke="black" d="M176.451,-1412.35C165.178,-1408.33 153.802,-1402.24 146,-1393 86.2932,-1322.31 55.6856,-1028.23 47.3715,-935.286"/>
<polygon fill="none" stroke="black" points="50.849,-934.874 46.4884,-925.218 43.8757,-935.486 50.849,-934.874"/>
</g>
<!-- \\Sessione -->
<g id="node10" class="node"><title>\\Sessione</title>
<polygon fill="none" stroke="black" points="250,-1384 180,-1384 180,-1348 250,-1348 250,-1384"/>
<text text-anchor="middle" x="215" y="-1363.1" font-family="Courier,monospace" font-size="11.00">Sessione</text>
</g>
<!-- \\Sessione&#45;&gt;\\Entita -->
<g id="edge19" class="edge"><title>\\Sessione&#45;&gt;\\Entita</title>
<path fill="none" stroke="black" d="M179.458,-1359.21C167.289,-1355.22 154.59,-1348.92 146,-1339 92.5668,-1277.3 58.3827,-1021.68 48.1977,-935.507"/>
<polygon fill="none" stroke="black" points="51.6552,-934.938 47.023,-925.409 44.702,-935.747 51.6552,-934.938"/>
</g>
<!-- \\Area -->
<g id="node12" class="node"><title>\\Area</title>
<polygon fill="none" stroke="black" points="242,-1330 188,-1330 188,-1294 242,-1294 242,-1330"/>
<text text-anchor="middle" x="215" y="-1309.1" font-family="Courier,monospace" font-size="11.00">Area</text>
</g>
<!-- \\Area&#45;&gt;\\Entita -->
<g id="edge21" class="edge"><title>\\Area&#45;&gt;\\Entita</title>
<path fill="none" stroke="black" d="M187.706,-1307.44C173.418,-1303.71 156.716,-1296.99 146,-1285 98.7633,-1232.16 61.4235,-1014.28 49.2344,-935.55"/>
<polygon fill="none" stroke="black" points="52.6532,-934.752 47.683,-925.395 45.7335,-935.809 52.6532,-934.752"/>
</g>
<!-- \\RichiestaTurno -->
<g id="node13" class="node"><title>\\RichiestaTurno</title>
<polygon fill="none" stroke="black" points="270,-1276 160,-1276 160,-1240 270,-1240 270,-1276"/>
<text text-anchor="middle" x="215" y="-1255.1" font-family="Courier,monospace" font-size="11.00">RichiestaTurno</text>
</g>
<!-- \\RichiestaTurno&#45;&gt;\\Entita -->
<g id="edge23" class="edge"><title>\\RichiestaTurno&#45;&gt;\\Entita</title>
<path fill="none" stroke="black" d="M159.352,-1241.64C154.428,-1238.66 149.858,-1235.14 146,-1231 104.839,-1186.82 64.8405,-1005.67 50.5317,-935.215"/>
<polygon fill="none" stroke="black" points="53.9356,-934.389 48.5345,-925.274 47.0727,-935.767 53.9356,-934.389"/>
</g>
<!-- \\Annunci -->
<g id="node14" class="node"><title>\\Annunci</title>
<polygon fill="none" stroke="black" points="247,-1222 183,-1222 183,-1186 247,-1186 247,-1222"/>
<text text-anchor="middle" x="215" y="-1201.1" font-family="Courier,monospace" font-size="11.00">Annunci</text>
</g>
<!-- \\Annunci&#45;&gt;\\Entita -->
<g id="edge25" class="edge"><title>\\Annunci&#45;&gt;\\Entita</title>
<path fill="none" stroke="black" d="M182.96,-1197.51C170.066,-1193.48 155.93,-1187.08 146,-1177 78.1479,-1108.12 55.1858,-989.437 48.0028,-935.345"/>
<polygon fill="none" stroke="black" points="51.4391,-934.615 46.7334,-925.122 44.4924,-935.477 51.4391,-934.615"/>
</g>
<!-- \\Gruppo -->
<g id="node15" class="node"><title>\\Gruppo</title>
<polygon fill="none" stroke="black" points="243,-1168 187,-1168 187,-1132 243,-1132 243,-1168"/>
<text text-anchor="middle" x="215" y="-1147.1" font-family="Courier,monospace" font-size="11.00">Gruppo</text>
</g>
<!-- \\Gruppo&#45;&gt;\\Entita -->
<g id="edge27" class="edge"><title>\\Gruppo&#45;&gt;\\Entita</title>
<path fill="none" stroke="black" d="M186.462,-1144.07C172.862,-1140.04 157.167,-1133.47 146,-1123 89.8259,-1070.33 61.9612,-980.163 50.9237,-934.797"/>
<polygon fill="none" stroke="black" points="54.3297,-933.991 48.6453,-925.05 47.5134,-935.584 54.3297,-933.991"/>
</g>
<!-- \\Patentirichieste -->
<g id="node16" class="node"><title>\\Patentirichieste</title>
<polygon fill="none" stroke="black" points="277,-1114 153,-1114 153,-1078 277,-1078 277,-1114"/>
<text text-anchor="middle" x="215" y="-1093.1" font-family="Courier,monospace" font-size="11.00">Patentirichieste</text>
</g>
<!-- \\Patentirichieste&#45;&gt;\\Entita -->
<g id="edge29" class="edge"><title>\\Patentirichieste&#45;&gt;\\Entita</title>
<path fill="none" stroke="black" d="M159.327,-1077.99C154.584,-1075.35 150.057,-1072.37 146,-1069 101.489,-1032.03 70.7147,-970.139 55.6425,-934.514"/>
<polygon fill="none" stroke="black" points="58.8533,-933.119 51.8094,-925.205 52.3806,-935.785 58.8533,-933.119"/>
</g>
<!-- \\Reperibilita -->
<g id="node17" class="node"><title>\\Reperibilita</title>
<polygon fill="none" stroke="black" points="264,-1060 166,-1060 166,-1024 264,-1024 264,-1060"/>
<text text-anchor="middle" x="215" y="-1039.1" font-family="Courier,monospace" font-size="11.00">Reperibilita</text>
</g>
<!-- \\Reperibilita&#45;&gt;\\Entita -->
<g id="edge31" class="edge"><title>\\Reperibilita&#45;&gt;\\Entita</title>
<path fill="none" stroke="black" d="M165.74,-1025.88C158.855,-1022.74 152.068,-1019.12 146,-1015 112.74,-992.444 82.3902,-957.089 63.8281,-933.023"/>
<polygon fill="none" stroke="black" points="66.5958,-930.881 57.7686,-925.021 61.0152,-935.106 66.5958,-930.881"/>
</g>
<!-- \\GeocoderResult -->
<g id="node18" class="node"><title>\\GeocoderResult</title>
<polygon fill="none" stroke="black" points="663,-979 553,-979 553,-943 663,-943 663,-979"/>
<text text-anchor="middle" x="608" y="-958.1" font-family="Courier,monospace" font-size="11.00">GeocoderResult</text>
</g>
<!-- \\AppartenenzaGruppo -->
<g id="node19" class="node"><title>\\AppartenenzaGruppo</title>
<polygon fill="none" stroke="black" points="284,-1006 146,-1006 146,-970 284,-970 284,-1006"/>
<text text-anchor="middle" x="215" y="-985.1" font-family="Courier,monospace" font-size="11.00">AppartenenzaGruppo</text>
</g>
<!-- \\AppartenenzaGruppo&#45;&gt;\\Entita -->
<g id="edge33" class="edge"><title>\\AppartenenzaGruppo&#45;&gt;\\Entita</title>
<path fill="none" stroke="black" d="M166.81,-969.985C159.773,-967.111 152.659,-964.07 146,-961 124.586,-951.127 101.337,-938.813 82.5485,-928.438"/>
<polygon fill="none" stroke="black" points="84.1512,-925.325 73.7112,-923.52 80.7471,-931.441 84.1512,-925.325"/>
</g>
<!-- \\APIServer -->
<g id="node20" class="node"><title>\\APIServer</title>
<polygon fill="none" stroke="black" points="646,-925 570,-925 570,-889 646,-889 646,-925"/>
<text text-anchor="middle" x="608" y="-904.1" font-family="Courier,monospace" font-size="11.00">APIServer</text>
</g>
<!-- \\Volontario -->
<g id="node21" class="node"><title>\\Volontario</title>
<polygon fill="none" stroke="black" points="650,-1033 566,-1033 566,-997 650,-997 650,-1033"/>
<text text-anchor="middle" x="608" y="-1012.1" font-family="Courier,monospace" font-size="11.00">Volontario</text>
</g>
<!-- \\Volontario&#45;&gt;\\Utente -->
<g id="edge35" class="edge"><title>\\Volontario&#45;&gt;\\Utente</title>
<path fill="none" stroke="black" d="M565.833,-997.023C532.939,-983 487.654,-963.695 455.901,-950.158"/>
<polygon fill="none" stroke="black" points="457.081,-946.856 446.509,-946.154 454.336,-953.295 457.081,-946.856"/>
</g>
<!-- \\Veicoli -->
<g id="node22" class="node"><title>\\Veicoli</title>
<polygon fill="none" stroke="black" points="450,-898 386,-898 386,-862 450,-862 450,-898"/>
<text text-anchor="middle" x="418" y="-877.1" font-family="Courier,monospace" font-size="11.00">Veicoli</text>
</g>
<!-- \\Oggetto -->
<g id="node29" class="node"><title>\\Oggetto</title>
<polygon fill="none" stroke="black" points="247,-898 183,-898 183,-862 247,-862 247,-898"/>
<text text-anchor="middle" x="215" y="-877.1" font-family="Courier,monospace" font-size="11.00">Oggetto</text>
</g>
<!-- \\Veicoli&#45;&gt;\\Oggetto -->
<g id="edge37" class="edge"><title>\\Veicoli&#45;&gt;\\Oggetto</title>
<path fill="none" stroke="black" d="M385.834,-880C351.089,-880 295.582,-880 257.319,-880"/>
<polygon fill="none" stroke="black" points="257.015,-876.5 247.015,-880 257.015,-883.5 257.015,-876.5"/>
</g>
<!-- \\Regionale -->
<g id="node23" class="node"><title>\\Regionale</title>
<polygon fill="none" stroke="black" points="646,-736 570,-736 570,-700 646,-700 646,-736"/>
<text text-anchor="middle" x="608" y="-715.1" font-family="Courier,monospace" font-size="11.00">Regionale</text>
</g>
<!-- \\GeoPolitica -->
<g id="node45" class="node"><title>\\GeoPolitica</title>
<polygon fill="none" stroke="black" points="464,-466 372,-466 372,-430 464,-430 464,-466"/>
<text text-anchor="start" x="384" y="-453.433" font-family="Courier,monospace" font-size="11.00">«abstract»</text>
<text text-anchor="start" x="380.5" y="-440.233" font-family="Courier,monospace" font-size="11.00">GeoPolitica</text>
</g>
<!-- \\Regionale&#45;&gt;\\GeoPolitica -->
<g id="edge39" class="edge"><title>\\Regionale&#45;&gt;\\GeoPolitica</title>
<path fill="none" stroke="black" d="M569.311,-704.457C562.89,-700.865 556.777,-696.429 552,-691 485.15,-615.032 548.301,-549.665 480,-475 477.781,-472.574 475.306,-470.357 472.657,-468.33"/>
<polygon fill="none" stroke="black" points="474.549,-465.385 464.272,-462.807 470.698,-471.23 474.549,-465.385"/>
</g>
<!-- \\ElementoRichiesta -->
<g id="node24" class="node"><title>\\ElementoRichiesta</title>
<polygon fill="none" stroke="black" points="280,-844 150,-844 150,-808 280,-808 280,-844"/>
<text text-anchor="middle" x="215" y="-823.1" font-family="Courier,monospace" font-size="11.00">ElementoRichiesta</text>
</g>
<!-- \\ElementoRichiesta&#45;&gt;\\Entita -->
<g id="edge41" class="edge"><title>\\ElementoRichiesta&#45;&gt;\\Entita</title>
<path fill="none" stroke="black" d="M166.81,-844.015C159.773,-846.889 152.659,-849.93 146,-853 124.586,-862.873 101.337,-875.187 82.5485,-885.562"/>
<polygon fill="none" stroke="black" points="80.7471,-882.559 73.7112,-890.48 84.1512,-888.675 80.7471,-882.559"/>
</g>
<!-- \\Errore -->
<g id="node25" class="node"><title>\\Errore</title>
<polygon fill="none" stroke="black" points="636,-304 580,-304 580,-268 636,-268 636,-304"/>
<text text-anchor="middle" x="608" y="-283.1" font-family="Courier,monospace" font-size="11.00">Errore</text>
</g>
<!-- \\Exception -->
<g id="node73" class="node"><title>\\Exception</title>
<ellipse fill="none" stroke="black" cx="418" cy="-126" rx="62.2254" ry="18.3848"/>
<text text-anchor="middle" x="418" y="-122.4" font-family="Times Roman,serif" font-size="14.00" fill="gray">\Exception</text>
</g>
<!-- \\Errore&#45;&gt;\\Exception -->
<g id="edge43" class="edge"><title>\\Errore&#45;&gt;\\Exception</title>
<path fill="none" stroke="black" d="M579.405,-275.832C570.003,-271.589 559.936,-265.993 552,-259 507.882,-220.124 526.158,-184.432 480,-148 477.731,-146.209 475.304,-144.557 472.773,-143.034"/>
<polygon fill="none" stroke="black" points="474.325,-139.895 463.845,-138.339 471.067,-146.091 474.325,-139.895"/>
</g>
<!-- \\File&#45;&gt;\\Entita -->
<g id="edge45" class="edge"><title>\\File&#45;&gt;\\Entita</title>
<path fill="none" stroke="black" d="M187.951,-290.006C173.374,-293.585 156.312,-300.329 146,-313 73.779,-401.742 51.2358,-772.566 46.2053,-878.579"/>
<polygon fill="none" stroke="black" points="42.6977,-878.665 45.7356,-888.815 49.6904,-878.986 42.6977,-878.665"/>
</g>
<!-- \\Quota -->
<g id="node27" class="node"><title>\\Quota</title>
<polygon fill="none" stroke="black" points="242,-790 188,-790 188,-754 242,-754 242,-790"/>
<text text-anchor="middle" x="215" y="-769.1" font-family="Courier,monospace" font-size="11.00">Quota</text>
</g>
<!-- \\Quota&#45;&gt;\\Entita -->
<g id="edge47" class="edge"><title>\\Quota&#45;&gt;\\Entita</title>
<path fill="none" stroke="black" d="M187.752,-779.539C174.469,-783.97 158.669,-790.408 146,-799 112.74,-821.556 82.3902,-856.911 63.8281,-880.977"/>
<polygon fill="none" stroke="black" points="61.0152,-878.894 57.7686,-888.979 66.5958,-883.119 61.0152,-878.894"/>
</g>
<!-- \\Comitato -->
<g id="node28" class="node"><title>\\Comitato</title>
<polygon fill="none" stroke="black" points="643,-682 573,-682 573,-646 643,-646 643,-682"/>
<text text-anchor="middle" x="608" y="-661.1" font-family="Courier,monospace" font-size="11.00">Comitato</text>
</g>
<!-- \\Comitato&#45;&gt;\\GeoPolitica -->
<g id="edge49" class="edge"><title>\\Comitato&#45;&gt;\\GeoPolitica</title>
<path fill="none" stroke="black" d="M572.344,-651.461C564.965,-647.662 557.71,-642.89 552,-637 497.158,-580.429 535.922,-530.504 480,-475 477.852,-472.868 475.507,-470.891 473.028,-469.061"/>
<polygon fill="none" stroke="black" points="474.477,-465.832 464.168,-463.384 470.7,-471.726 474.477,-465.832"/>
</g>
<!-- \\Oggetto&#45;&gt;\\Entita -->
<g id="edge51" class="edge"><title>\\Oggetto&#45;&gt;\\Entita</title>
<path fill="none" stroke="black" d="M182.624,-885.142C154.445,-889.618 113.544,-896.114 83.6547,-900.861"/>
<polygon fill="none" stroke="black" points="82.9079,-897.435 73.5807,-902.461 84.006,-904.349 82.9079,-897.435"/>
</g>
<!-- \\Avatar -->
<g id="node30" class="node"><title>\\Avatar</title>
<polygon fill="none" stroke="black" points="243,-736 187,-736 187,-700 243,-700 243,-736"/>
<text text-anchor="middle" x="215" y="-715.1" font-family="Courier,monospace" font-size="11.00">Avatar</text>
</g>
<!-- \\Avatar&#45;&gt;\\Entita -->
<g id="edge53" class="edge"><title>\\Avatar&#45;&gt;\\Entita</title>
<path fill="none" stroke="black" d="M186.303,-724.731C172.985,-728.917 157.577,-735.383 146,-745 101.489,-781.973 70.7147,-843.861 55.6425,-879.486"/>
<polygon fill="none" stroke="black" points="52.3806,-878.215 51.8094,-888.795 58.8533,-880.881 52.3806,-878.215"/>
</g>
<!-- \\Persona&#45;&gt;\\Entita -->
<g id="edge55" class="edge"><title>\\Persona&#45;&gt;\\Entita</title>
<path fill="none" stroke="black" d="M182.624,-928.858C154.445,-924.382 113.544,-917.886 83.6547,-913.139"/>
<polygon fill="none" stroke="black" points="84.006,-909.651 73.5807,-911.539 82.9079,-916.565 84.006,-909.651"/>
</g>
<!-- \\Trasferimento -->
<g id="node32" class="node"><title>\\Trasferimento</title>
<polygon fill="none" stroke="black" points="267,-682 163,-682 163,-646 267,-646 267,-682"/>
<text text-anchor="middle" x="215" y="-661.1" font-family="Courier,monospace" font-size="11.00">Trasferimento</text>
</g>
<!-- \\Trasferimento&#45;&gt;\\Entita -->
<g id="edge57" class="edge"><title>\\Trasferimento&#45;&gt;\\Entita</title>
<path fill="none" stroke="black" d="M162.68,-679.395C156.624,-682.594 150.88,-686.425 146,-691 89.8259,-743.668 61.9612,-833.837 50.9237,-879.203"/>
<polygon fill="none" stroke="black" points="47.5134,-878.416 48.6453,-888.95 54.3297,-880.009 47.5134,-878.416"/>
</g>
<!-- \\Turno -->
<g id="node33" class="node"><title>\\Turno</title>
<polygon fill="none" stroke="black" points="242,-628 188,-628 188,-592 242,-592 242,-628"/>
<text text-anchor="middle" x="215" y="-607.1" font-family="Courier,monospace" font-size="11.00">Turno</text>
</g>
<!-- \\Turno&#45;&gt;\\Entita -->
<g id="edge59" class="edge"><title>\\Turno&#45;&gt;\\Entita</title>
<path fill="none" stroke="black" d="M187.812,-615.069C173.732,-618.947 157.194,-625.637 146,-637 78.1479,-705.88 55.1858,-824.563 48.0028,-878.655"/>
<polygon fill="none" stroke="black" points="44.4924,-878.523 46.7334,-888.878 51.4391,-879.385 44.4924,-878.523"/>
</g>
<!-- \\Attivita -->
<g id="node34" class="node"><title>\\Attivita</title>
<polygon fill="none" stroke="black" points="453,-520 383,-520 383,-484 453,-484 453,-520"/>
<text text-anchor="middle" x="418" y="-499.1" font-family="Courier,monospace" font-size="11.00">Attivita</text>
</g>
<!-- \\GeoEntita -->
<g id="node47" class="node"><title>\\GeoEntita</title>
<polygon fill="none" stroke="black" points="253,-250 177,-250 177,-214 253,-214 253,-250"/>
<text text-anchor="middle" x="215" y="-229.1" font-family="Courier,monospace" font-size="11.00">GeoEntita</text>
</g>
<!-- \\Attivita&#45;&gt;\\GeoEntita -->
<g id="edge61" class="edge"><title>\\Attivita&#45;&gt;\\GeoEntita</title>
<path fill="none" stroke="black" d="M382.274,-492.364C372.695,-488.322 363.053,-482.71 356,-475 287.699,-400.335 353.698,-332.364 284,-259 278.141,-252.833 270.706,-248.051 262.898,-244.349"/>
<polygon fill="none" stroke="black" points="264.212,-241.104 253.635,-240.482 261.515,-247.564 264.212,-241.104"/>
</g>
<!-- \\Provinciale -->
<g id="node35" class="node"><title>\\Provinciale</title>
<polygon fill="none" stroke="black" points="653,-628 563,-628 563,-592 653,-592 653,-628"/>
<text text-anchor="middle" x="608" y="-607.1" font-family="Courier,monospace" font-size="11.00">Provinciale</text>
</g>
<!-- \\Provinciale&#45;&gt;\\GeoPolitica -->
<g id="edge63" class="edge"><title>\\Provinciale&#45;&gt;\\GeoPolitica</title>
<path fill="none" stroke="black" d="M564.336,-591.881C559.953,-589.218 555.746,-586.259 552,-583 508.478,-545.133 524.243,-512.021 480,-475 477.763,-473.128 475.376,-471.365 472.89,-469.708"/>
<polygon fill="none" stroke="black" points="474.506,-466.597 464.126,-464.475 470.917,-472.607 474.506,-466.597"/>
</g>
<!-- \\PDF -->
<g id="node36" class="node"><title>\\PDF</title>
<polygon fill="none" stroke="black" points="635,-520 581,-520 581,-484 635,-484 635,-520"/>
<text text-anchor="middle" x="608" y="-499.1" font-family="Courier,monospace" font-size="11.00">PDF</text>
</g>
<!-- \\Autorizzazione -->
<g id="node37" class="node"><title>\\Autorizzazione</title>
<polygon fill="none" stroke="black" points="270,-574 160,-574 160,-538 270,-538 270,-574"/>
<text text-anchor="middle" x="215" y="-553.1" font-family="Courier,monospace" font-size="11.00">Autorizzazione</text>
</g>
<!-- \\Autorizzazione&#45;&gt;\\Entita -->
<g id="edge65" class="edge"><title>\\Autorizzazione&#45;&gt;\\Entita</title>
<path fill="none" stroke="black" d="M159.352,-572.361C154.428,-575.343 149.858,-578.859 146,-583 104.839,-627.184 64.8405,-808.332 50.5317,-878.785"/>
<polygon fill="none" stroke="black" points="47.0727,-878.233 48.5345,-888.726 53.9356,-879.611 47.0727,-878.233"/>
</g>
<!-- \\Coturno -->
<g id="node38" class="node"><title>\\Coturno</title>
<polygon fill="none" stroke="black" points="247,-520 183,-520 183,-484 247,-484 247,-520"/>
<text text-anchor="middle" x="215" y="-499.1" font-family="Courier,monospace" font-size="11.00">Coturno</text>
</g>
<!-- \\Coturno&#45;&gt;\\Entita -->
<g id="edge67" class="edge"><title>\\Coturno&#45;&gt;\\Entita</title>
<path fill="none" stroke="black" d="M182.826,-507.928C169.752,-511.865 155.516,-518.355 146,-529 98.7633,-581.841 61.4235,-799.717 49.2344,-878.45"/>
<polygon fill="none" stroke="black" points="45.7335,-878.191 47.683,-888.605 52.6532,-879.248 45.7335,-878.191"/>
</g>
<!-- \\Nazionale -->
<g id="node39" class="node"><title>\\Nazionale</title>
<polygon fill="none" stroke="black" points="646,-574 570,-574 570,-538 646,-538 646,-574"/>
<text text-anchor="middle" x="608" y="-553.1" font-family="Courier,monospace" font-size="11.00">Nazionale</text>
</g>
<!-- \\Nazionale&#45;&gt;\\GeoPolitica -->
<g id="edge69" class="edge"><title>\\Nazionale&#45;&gt;\\GeoPolitica</title>
<path fill="none" stroke="black" d="M569.218,-538.52C563.348,-535.527 557.441,-532.309 552,-529 517.824,-508.216 514.571,-495.121 480,-475 477.479,-473.533 474.864,-472.096 472.196,-470.698"/>
<polygon fill="none" stroke="black" points="473.494,-467.434 462.983,-466.103 470.37,-473.698 473.494,-467.434"/>
</g>
<!-- \\TitoloPersonale -->
<g id="node40" class="node"><title>\\TitoloPersonale</title>
<polygon fill="none" stroke="black" points="274,-466 156,-466 156,-430 274,-430 274,-466"/>
<text text-anchor="middle" x="215" y="-445.1" font-family="Courier,monospace" font-size="11.00">TitoloPersonale</text>
</g>
<!-- \\TitoloPersonale&#45;&gt;\\Entita -->
<g id="edge71" class="edge"><title>\\TitoloPersonale&#45;&gt;\\Entita</title>
<path fill="none" stroke="black" d="M156.106,-466.015C152.379,-468.619 148.947,-471.597 146,-475 92.5668,-536.697 58.3827,-792.321 48.1977,-878.493"/>
<polygon fill="none" stroke="black" points="44.702,-878.253 47.023,-888.591 51.6552,-879.062 44.702,-878.253"/>
</g>
<!-- \\Delegato -->
<g id="node41" class="node"><title>\\Delegato</title>
<polygon fill="none" stroke="black" points="250,-412 180,-412 180,-376 250,-376 250,-412"/>
<text text-anchor="middle" x="215" y="-391.1" font-family="Courier,monospace" font-size="11.00">Delegato</text>
</g>
<!-- \\Delegato&#45;&gt;\\Entita -->
<g id="edge73" class="edge"><title>\\Delegato&#45;&gt;\\Entita</title>
<path fill="none" stroke="black" d="M179.324,-400.674C167.14,-404.654 154.466,-410.976 146,-421 86.2932,-491.692 55.6856,-785.772 47.3715,-878.714"/>
<polygon fill="none" stroke="black" points="43.8757,-878.514 46.4884,-888.782 50.849,-879.126 43.8757,-878.514"/>
</g>
<!-- \\Email -->
<g id="node42" class="node"><title>\\Email</title>
<polygon fill="none" stroke="black" points="635,-412 581,-412 581,-376 635,-376 635,-412"/>
<text text-anchor="middle" x="608" y="-391.1" font-family="Courier,monospace" font-size="11.00">Email</text>
</g>
<!-- \\Riserva -->
<g id="node43" class="node"><title>\\Riserva</title>
<polygon fill="none" stroke="black" points="247,-358 183,-358 183,-322 247,-322 247,-358"/>
<text text-anchor="middle" x="215" y="-337.1" font-family="Courier,monospace" font-size="11.00">Riserva</text>
</g>
<!-- \\Riserva&#45;&gt;\\Entita -->
<g id="edge75" class="edge"><title>\\Riserva&#45;&gt;\\Entita</title>
<path fill="none" stroke="black" d="M182.784,-345.483C169.541,-349.346 155.186,-355.901 146,-367 80.0609,-446.674 53.3585,-778.893 46.7361,-878.592"/>
<polygon fill="none" stroke="black" points="43.2287,-878.594 46.0749,-888.799 50.2141,-879.046 43.2287,-878.594"/>
</g>
<!-- \\Excel -->
<g id="node44" class="node"><title>\\Excel</title>
<polygon fill="none" stroke="black" points="445,-574 391,-574 391,-538 445,-538 445,-574"/>
<text text-anchor="middle" x="418" y="-553.1" font-family="Courier,monospace" font-size="11.00">Excel</text>
</g>
<!-- \\Excel&#45;&gt;\\File -->
<g id="edge77" class="edge"><title>\\Excel&#45;&gt;\\File</title>
<path fill="none" stroke="black" d="M390.901,-549.623C378.784,-545.534 365.192,-539.049 356,-529 287.699,-454.335 353.698,-386.364 284,-313 275.348,-303.893 263.256,-297.805 251.607,-293.758"/>
<polygon fill="none" stroke="black" points="252.599,-290.401 242.013,-290.817 250.548,-297.094 252.599,-290.401"/>
</g>
<!-- \\GeoPolitica&#45;&gt;\\GeoEntita -->
<g id="edge79" class="edge"><title>\\GeoPolitica&#45;&gt;\\GeoEntita</title>
<path fill="none" stroke="black" d="M371.837,-436.549C366.064,-433.756 360.586,-430.293 356,-426 296.99,-370.766 342.118,-315.171 284,-259 278.016,-253.216 270.65,-248.632 262.982,-245.009"/>
<polygon fill="none" stroke="black" points="264.128,-241.694 253.552,-241.052 261.419,-248.149 264.128,-241.694"/>
</g>
<!-- \\Geocoder -->
<g id="node46" class="node"><title>\\Geocoder</title>
<polygon fill="none" stroke="black" points="643,-358 573,-358 573,-322 643,-322 643,-358"/>
<text text-anchor="middle" x="608" y="-337.1" font-family="Courier,monospace" font-size="11.00">Geocoder</text>
</g>
<!-- \\GeoEntita&#45;&gt;\\Entita -->
<g id="edge81" class="edge"><title>\\GeoEntita&#45;&gt;\\Entita</title>
<path fill="none" stroke="black" d="M176.169,-239.422C164.881,-243.424 153.568,-249.569 146,-259 67.4704,-356.866 49.2957,-766.563 45.7601,-878.585"/>
<polygon fill="none" stroke="black" points="42.2563,-878.662 45.4539,-888.763 49.2531,-878.873 42.2563,-878.662"/>
</g>
<!-- \\DT -->
<g id="node48" class="node"><title>\\DT</title>
<polygon fill="none" stroke="black" points="635,-250 581,-250 581,-214 635,-214 635,-250"/>
<text text-anchor="middle" x="608" y="-229.1" font-family="Courier,monospace" font-size="11.00">DT</text>
</g>
<!-- \\DateTime -->
<g id="node94" class="node"><title>\\DateTime</title>
<ellipse fill="none" stroke="black" cx="418" cy="-72" rx="62.2254" ry="18.3848"/>
<text text-anchor="middle" x="418" y="-68.4" font-family="Times Roman,serif" font-size="14.00" fill="gray">\DateTime</text>
</g>
<!-- \\DT&#45;&gt;\\DateTime -->
<g id="edge83" class="edge"><title>\\DT&#45;&gt;\\DateTime</title>
<path fill="none" stroke="black" d="M580.922,-222.376C571.128,-218.05 560.418,-212.261 552,-205 508.873,-167.804 523.835,-135.358 480,-99 476.244,-95.8849 472.074,-93.0695 467.722,-90.5388"/>
<polygon fill="none" stroke="black" points="469.089,-87.3031 458.611,-85.7389 465.827,-93.4964 469.089,-87.3031"/>
</g>
<!-- \\Locale -->
<g id="node49" class="node"><title>\\Locale</title>
<polygon fill="none" stroke="black" points="636,-466 580,-466 580,-430 636,-430 636,-466"/>
<text text-anchor="middle" x="608" y="-445.1" font-family="Courier,monospace" font-size="11.00">Locale</text>
</g>
<!-- \\Locale&#45;&gt;\\GeoPolitica -->
<g id="edge85" class="edge"><title>\\Locale&#45;&gt;\\GeoPolitica</title>
<path fill="none" stroke="black" d="M579.143,-448C551.484,-448 508.974,-448 474.559,-448"/>
<polygon fill="none" stroke="black" points="474.164,-444.5 464.164,-448 474.164,-451.5 474.164,-444.5"/>
</g>
<!-- \\Titolo -->
<g id="node50" class="node"><title>\\Titolo</title>
<polygon fill="none" stroke="black" points="243,-196 187,-196 187,-160 243,-160 243,-196"/>
<text text-anchor="middle" x="215" y="-175.1" font-family="Courier,monospace" font-size="11.00">Titolo</text>
</g>
<!-- \\Titolo&#45;&gt;\\Entita -->
<g id="edge87" class="edge"><title>\\Titolo&#45;&gt;\\Entita</title>
<path fill="none" stroke="black" d="M186.439,-182.251C172.142,-185.884 155.83,-192.602 146,-205 61.1493,-312.023 47.5114,-760.73 45.3827,-878.56"/>
<polygon fill="none" stroke="black" points="41.8775,-878.851 45.2106,-888.907 48.8765,-878.967 41.8775,-878.851"/>
</g>
<!-- \\ePDO -->
<g id="node51" class="node"><title>\\ePDO</title>
<polygon fill="none" stroke="black" points="635,-196 581,-196 581,-160 635,-160 635,-196"/>
<text text-anchor="middle" x="608" y="-175.1" font-family="Courier,monospace" font-size="11.00">ePDO</text>
</g>
<!-- \\PDO -->
<g id="node98" class="node"><title>\\PDO</title>
<ellipse fill="none" stroke="black" cx="418" cy="-18" rx="36.977" ry="18.3848"/>
<text text-anchor="middle" x="418" y="-14.4" font-family="Times Roman,serif" font-size="14.00" fill="gray">\PDO</text>
</g>
<!-- \\ePDO&#45;&gt;\\PDO -->
<g id="edge89" class="edge"><title>\\ePDO&#45;&gt;\\PDO</title>
<path fill="none" stroke="black" d="M594.457,-159.891C572.868,-132.059 528.148,-78.4822 480,-45 473.216,-40.2824 465.476,-36.1179 457.818,-32.5591"/>
<polygon fill="none" stroke="black" points="459.152,-29.3226 448.588,-28.5219 456.347,-35.736 459.152,-29.3226"/>
</g>
</g>
</svg>
